name C:\Users\antoi\Documents\MyRepositories\upper-imu-dc\Results\main_tracking\Case_89\kinematics.mot
datacolumns 10
datarows 47
range 3.00000000 3.46000000
endheader 
time	clav_prot	clav_elev	scapula_abduction	scapula_elevation	scapula_upward_rot	scapula_winging	plane_elv	shoulder_elv	axial_rot	
          3.00000000	        -23.36911610	         -2.71017861	        -16.90209526	         -1.58104935	          8.36658492	          6.17655705	        -13.14437175	         14.72381395	         40.51911523	
          3.01000000	        -23.33318395	         -2.79545359	        -16.84579089	         -1.61361601	          8.25884742	          6.22526050	        -13.13374821	         14.84448987	         40.22033294	
          3.02000000	        -23.28339151	         -2.88120421	        -16.78942126	         -1.64754374	          8.15588182	          6.27265266	        -13.12575769	         14.97311344	         39.91950478	
          3.03000000	        -23.23713765	         -2.96790632	        -16.73573726	         -1.68416037	          8.05894245	          6.31871003	        -13.12296622	         15.10899869	         39.61305428	
          3.04000000	        -23.19501853	         -3.05538861	        -16.68514840	         -1.72375479	          7.96935906	          6.36308379	        -13.12635747	         15.25224843	         39.29946631	
          3.05000000	        -23.15731326	         -3.14336304	        -16.63771411	         -1.76641639	          7.88815036	          6.40547945	        -13.13635764	         15.40320464	         38.97803377	
          3.06000000	        -23.12412342	         -3.23145707	        -16.59330581	         -1.81210469	          7.81615105	          6.44562800	        -13.15304963	         15.56229991	         38.64852033	
          3.07000000	        -23.09545808	         -3.31925612	        -16.55170702	         -1.86070515	          7.75407447	          6.48327805	        -13.17633658	         15.72999195	         38.31094419	
          3.08000000	        -23.07128638	         -3.40633338	        -16.51267879	         -1.91206382	          7.70254246	          6.51819455	        -13.20604891	         15.90672980	         37.96543258	
          3.09000000	        -23.05158714	         -3.49227724	        -16.47602720	         -1.96601707	          7.66210435	          6.55016063	        -13.24201856	         16.09293047	         37.61211503	
          3.10000000	        -23.03638017	         -3.57671859	        -16.44163005	         -2.02242513	          7.63327370	          6.57897534	        -13.28420480	         16.28894444	         37.25097082	
          3.11000000	        -23.02577513	         -3.65935902	        -16.40950264	         -2.08120288	          7.61654912	          6.60445685	        -13.33272955	         16.49503367	         36.88173988	
          3.12000000	        -23.02046597	         -3.73990902	        -16.38060698	         -2.14233674	          7.61253444	          6.62640625	        -13.38797745	         16.71122054	         36.50386097	
          3.13000000	        -23.02582125	         -3.81713327	        -16.36458406	         -2.20517288	          7.62116276	          6.64464272	        -13.45096805	         16.93814663	         36.11675276	
          3.14000000	        -23.03074468	         -3.89165386	        -16.34208942	         -2.26948339	          7.64237192	          6.65911677	        -13.52452468	         17.17667017	         35.71787786	
          3.15000000	        -23.02656677	         -3.96238278	        -16.29884092	         -2.33363911	          7.67532812	          6.66956059	        -13.61130291	         17.42808640	         35.30606794	
          3.16000000	        -23.02048645	         -4.02810398	        -16.24738522	         -2.39723886	          7.72041103	          6.67568195	        -13.71113263	         17.69180891	         34.88156265	
          3.17000000	        -23.01454932	         -4.08974347	        -16.19062772	         -2.46131002	          7.77829290	          6.67758686	        -13.82382369	         17.96703289	         34.44439397	
          3.18000000	        -23.01022294	         -4.14770587	        -16.13094079	         -2.52625549	          7.84901021	          6.67539975	        -13.94871075	         18.25331303	         33.99565610	
          3.19000000	        -23.00887672	         -4.20232373	        -16.07059473	         -2.59238571	          7.93249845	          6.66925402	        -14.08484682	         18.55006781	         33.53671485	
          3.20000000	        -23.01175884	         -4.25393908	        -16.01171385	         -2.65997152	          8.02855939	          6.65932048	        -14.23112104	         18.85664778	         33.06916944	
          3.21000000	        -23.01999954	         -4.30288812	        -15.95628372	         -2.72923448	          8.13686682	          6.64579992	        -14.38623268	         19.17233376	         32.59485711	
          3.22000000	        -23.03465291	         -4.34950437	        -15.90620452	         -2.80036228	          8.25700208	          6.62891388	        -14.54870154	         19.49631959	         32.11580809	
          3.23000000	        -23.05675434	         -4.39416913	        -15.86335085	         -2.87356644	          8.38850548	          6.60890570	        -14.71696218	         19.82771101	         31.63418670	
          3.24000000	        -23.08309269	         -4.43765334	        -15.82212123	         -2.94911960	          8.53099290	          6.58601370	        -14.88943761	         20.16547061	         31.15191632	
          3.25000000	        -23.12206007	         -4.47904066	        -15.79760719	         -3.02658379	          8.68366346	          6.56034961	        -15.06453521	         20.50883219	         30.67107829	
          3.26000000	        -23.16858214	         -4.51860844	        -15.78144919	         -3.10555802	          8.84550335	          6.53210694	        -15.24122285	         20.85743834	         30.19296035	
          3.27000000	        -23.22194357	         -4.55619102	        -15.77284890	         -3.18561394	          9.01566092	          6.50140569	        -15.41841953	         21.21082104	         29.71889695	
          3.28000000	        -23.28149030	         -4.59156209	        -15.77103450	         -3.26633345	          9.19346925	          6.46829805	        -15.59504625	         21.56844515	         29.25005377	
          3.29000000	        -23.34662647	         -4.62447031	        -15.77524718	         -3.34733466	          9.37844248	          6.43278068	        -15.77005386	         21.92976225	         28.78746142	
          3.30000000	        -23.41681440	         -4.65464470	        -15.78473653	         -3.42827654	          9.57027957	          6.39479606	        -15.94243592	         22.29422765	         28.33200400	
          3.31000000	        -23.49158339	         -4.68181108	        -15.79877098	         -3.50887103	          9.76886212	          6.35423884	        -16.11125678	         22.66130615	         27.88439083	
          3.32000000	        -23.57053626	         -4.70571142	        -15.81664990	         -3.58889388	          9.97424075	          6.31096590	        -16.27568405	         23.03047424	         27.44513954	
          3.33000000	        -23.65334316	         -4.72611946	        -15.83771158	         -3.66818354	         10.18659071	          6.26481278	        -16.43498772	         23.40123667	         27.01456076	
          3.34000000	        -23.73974301	         -4.74285900	        -15.86134098	         -3.74664894	         10.40619088	          6.21560527	        -16.58858468	         23.77311816	         26.59280114	
          3.35000000	        -23.82953441	         -4.75581578	        -15.88697866	         -3.82426343	         10.63337180	          6.16317670	        -16.73601595	         24.14567654	         26.17981689	
          3.36000000	        -23.92256985	         -4.76494874	        -15.91412216	         -3.90106519	         10.86848836	          6.10737885	        -16.87696179	         24.51849620	         25.77541585	
          3.37000000	        -24.01874333	         -4.77029575	        -15.94232369	         -3.97715036	         11.11188208	          6.04809380	        -17.01122666	         24.89119039	         25.37928739	
          3.38000000	        -24.11797620	         -4.77197613	        -15.97118485	         -4.05266439	         11.36384597	          5.98524414	        -17.13872045	         25.26340195	         24.99104306	
          3.39000000	        -24.22020195	         -4.77018972	        -16.00034988	         -4.12779126	         11.62459084	          5.91880189	        -17.25943491	         25.63480255	         24.61026060	
          3.40000000	        -24.32534958	         -4.76521180	        -16.02949699	         -4.20274032	         11.89421420	          5.84879543	        -17.37341700	         26.00508936	         24.23653145	
          3.41000000	        -24.43332678	         -4.75738300	        -16.05832781	         -4.27773110	         12.17267515	          5.77531356	        -17.48073822	         26.37398168	         23.86950815	
          3.42000000	        -24.54400776	         -4.74709368	        -16.08656029	         -4.35297742	         12.45978069	          5.69850479	        -17.58146684	         26.74122226	         23.50894782	
          3.43000000	        -24.65722714	         -4.73476025	        -16.11393160	         -4.42866721	         12.75517721	          5.61857260	        -17.67565337	         27.10658587	         23.15474201	
          3.44000000	        -24.77277013	         -4.72081954	        -16.14019307	         -4.50495515	         13.05833748	          5.53577785	        -17.76331533	         27.46986167	         22.80693466	
          3.45000000	        -24.89036251	         -4.70573059	        -16.16509944	         -4.58196282	         13.36855443	          5.45044224	        -17.84441309	         27.83083690	         22.46574358	
          3.46000000	        -25.00969662	         -4.68992394	        -16.18843497	         -4.65975811	         13.68500045	          5.36291626	        -17.91887351	         28.18937403	         22.13153179	
